<?xml version="1.0" encoding="UTF-8" standalone="no"?>
<!DOCTYPE svg PUBLIC "-//W3C//DTD SVG 1.1//EN" "http://www.w3.org/Graphics/SVG/1.1/DTD/svg11.dtd">
<svg width="100%" height="100%" viewBox="0 0 202 182" version="1.1" xmlns="http://www.w3.org/2000/svg" xmlns:xlink="http://www.w3.org/1999/xlink" xml:space="preserve" xmlns:serif="http://www.serif.com/" style="fill-rule:evenodd;clip-rule:evenodd;stroke-linejoin:round;stroke-miterlimit:2;">
    <g transform="matrix(1,0,0,1,-227.881,-92.6)">
        <g>
            <path d="M351.6,200.6L331.2,200.6L331.2,176C331.2,174.1 329.7,172.5 327.7,172.5C325.8,172.5 324.2,174 324.2,176L324.2,200.6L303.8,200.6C301.9,200.6 300.3,202.1 300.3,204.1C300.3,206 301.8,207.6 303.8,207.6L324.2,207.6L324.2,270.4C324.2,272.3 325.7,273.9 327.7,273.9C329.6,273.9 331.2,272.4 331.2,270.4L331.2,207.6L351.6,207.6C353.5,207.6 355.1,206.1 355.1,204.1C355.1,202.1 353.5,200.6 351.6,200.6Z" style="fill:white;fill-rule:nonzero;"/>
            <path d="M428.3,191.6C427.6,190.9 426.7,190.5 425.8,190.5L400.2,190.5L403.1,153.9C403.2,152.9 402.8,152 402.2,151.3C401.6,150.6 400.6,150.2 399.7,150.2L331.3,150.2L331.3,114.5C335.9,113.1 339.2,108.8 339.2,103.8C339.2,97.6 334.2,92.6 328,92.6C321.8,92.6 316.8,97.6 316.8,103.8C316.8,108.7 320,113 324.5,114.4L324.5,150.2L256.1,150.2C255.1,150.2 254.2,150.6 253.6,151.3C252.9,152 252.6,153 252.7,153.9L255.6,190.5L231.3,190.5C230.3,190.5 229.4,190.9 228.8,191.6C228.1,192.3 227.8,193.3 227.9,194.2L233.7,270.5C233.8,272.3 235.4,273.7 237.1,273.7L237.4,273.7C239.3,273.6 240.7,271.9 240.6,270L235,197.4L256.1,197.4L261.9,270.5C262.1,272.4 263.7,273.8 265.6,273.7C267.5,273.5 268.9,271.9 268.8,270L259.9,157.1L396.2,157.1L386.9,270C386.7,271.9 388.2,273.6 390.1,273.7L390.4,273.7C392.2,273.7 393.7,272.3 393.8,270.5L399.6,197.4L422,197.4L416.4,270C416.3,271.9 417.7,273.6 419.6,273.7L419.9,273.7C421.7,273.7 423.2,272.3 423.3,270.5L429.1,194.2C429.2,193.3 428.9,192.3 428.3,191.6ZM327.7,99.4C330.1,99.4 332,101.3 332,103.7C332,106.1 330.1,108 327.7,108C325.3,108 323.4,106.1 323.4,103.7C323.4,101.3 325.4,99.4 327.7,99.4Z" style="fill:white;fill-rule:nonzero;"/>
        </g>
    </g>
</svg>
